<svg xmlns="http://www.w3.org/2000/svg" viewBox="0 0 32 32" fill="none" stroke="#6ee7b7" stroke-width="1.6" stroke-linecap="round" stroke-linejoin="round">
  <!-- Bowl -->
  <path d="M6 16h20c-.5 5.5-4 10-10 10S6.5 21.5 6 16z" fill="#6ee7b7" opacity="0.18"/>
  <path d="M6 16h20c-.5 5.5-4 10-10 10S6.5 21.5 6 16z"/>
  <line x1="12" y1="22" x2="14" y2="22" opacity="0.45"/>
  <line x1="18" y1="22" x2="20" y2="22" opacity="0.45"/>
  <circle cx="16" cy="15" r="1.2" fill="#6ee7b7" opacity="0.35" stroke="none"/>
  <!-- Leaf left -->
  <path d="M11 14c-1-3-4-5-6-4 .5 3 2.5 5 6 4z" fill="#6ee7b7" opacity="0.18"/>
  <path d="M11 14c-1-3-4-5-6-4 .5 3 2.5 5 6 4z"/>
  <!-- Leaf center -->
  <path d="M16 12c0-4 1.5-7 3.5-8-.5 2.5-.5 5.5-3.5 8z" fill="#6ee7b7" opacity="0.18"/>
  <path d="M16 12c0-4 1.5-7 3.5-8-.5 2.5-.5 5.5-3.5 8z"/>
  <!-- Leaf right -->
  <path d="M21 14c1-3 4-4.5 6-3.5-.5 3-2.5 4.5-6 3.5z" fill="#6ee7b7" opacity="0.18"/>
  <path d="M21 14c1-3 4-4.5 6-3.5-.5 3-2.5 4.5-6 3.5z"/>
</svg>
